<svg xmlns="http://www.w3.org/2000/svg" xmlns:xlink="http://www.w3.org/1999/xlink" version="1.1" width="1439.3668pt" height="684.8199pt" viewBox="0 0 1439.3668 684.8199">
<path transform="matrix(1,0,0,-1,0,684.8199)" d="M395.79725 37.88208C339.33653 15.049011 108.40711 61.23413 0 87.18085V684.8199H1436.3148C1437.5866 459.66017 1439.3668 8.302917 1436.3148 4.151428 1433.263 0 1303.4287 35.864076 1238.8931 54.315065 1045.0955 131.8092 884.99996 125.19977 880.49996 122.47211 808.49996 114.289188 729.92007 118.31683 715.2962 113.1275 632.32186 97.55951 452.25798 60.71521 395.79725 37.88208Z" fill="#f5f6fb" fill-opacity=".5"/>
<path transform="matrix(1,0,0,-1,282.5,682.3919)" d="M309.5 103.65861C252.10819 57.410837 83.113147 42.426378 0 33.39176 77.89684 24.749978 246.14716 14.565895 312.5 68.158588 364.5 110.158588 579.6015 111.96451 649.5 121.39191 574.3852 128.06966 361 145.15862 309.5 103.65861Z" fill="#e5e7f1" fill-opacity=".5"/>
</svg>
