<svg xmlns="http://www.w3.org/2000/svg" xmlns:xlink="http://www.w3.org/1999/xlink" version="1.1" width="1440pt" height="724pt" viewBox="0 0 1440 724">
<path transform="matrix(1,0,0,-1,0,724)" d="M0 724H1440V0H0V724Z" fill="#0f124d"/>
<path transform="matrix(1,0,0,-1,92,113)" d="M5 2.5C5 1.119288 3.880712 0 2.5 0 1.119288 0 0 1.119288 0 2.5 0 3.880712 1.119288 5 2.5 5 3.880712 5 5 3.880712 5 2.5Z" fill="#ffffff" fill-opacity=".9"/>
<path transform="matrix(1,0,0,-1,214,76)" d="M5 2.5C5 1.119288 3.880712 0 2.5 0 1.119288 0 0 1.119288 0 2.5 0 3.880712 1.119288 5 2.5 5 3.880712 5 5 3.880712 5 2.5Z" fill="#ffffff" fill-opacity=".5"/>
<path transform="matrix(1,0,0,-1,238,21)" d="M5 2.5C5 1.119288 3.880712 0 2.5 0 1.119288 0 0 1.119288 0 2.5 0 3.880712 1.119288 5 2.5 5 3.880712 5 5 3.880712 5 2.5Z" fill="#ffffff" fill-opacity=".15"/>
<path transform="matrix(1,0,0,-1,380,149)" d="M5 2.5C5 1.119288 3.880712 0 2.5 0 1.119288 0 0 1.119288 0 2.5 0 3.880712 1.119288 5 2.5 5 3.880712 5 5 3.880712 5 2.5Z" fill="#ffffff" fill-opacity=".9"/>
<path transform="matrix(1,0,0,-1,502,112)" d="M5 2.5C5 1.119288 3.880712 0 2.5 0 1.119288 0 0 1.119288 0 2.5 0 3.880712 1.119288 5 2.5 5 3.880712 5 5 3.880712 5 2.5Z" fill="#ffffff" fill-opacity=".5"/>
<path transform="matrix(1,0,0,-1,526,57)" d="M5 2.5C5 1.119288 3.880712 0 2.5 0 1.119288 0 0 1.119288 0 2.5 0 3.880712 1.119288 5 2.5 5 3.880712 5 5 3.880712 5 2.5Z" fill="#ffffff" fill-opacity=".15"/>
<path transform="matrix(1,0,0,-1,668,185)" d="M5 2.5C5 1.119288 3.880712 0 2.5 0 1.119288 0 0 1.119288 0 2.5 0 3.880712 1.119288 5 2.5 5 3.880712 5 5 3.880712 5 2.5Z" fill="#ffffff" fill-opacity=".9"/>
<path transform="matrix(1,0,0,-1,790,148)" d="M5 2.5C5 1.119288 3.880712 0 2.5 0 1.119288 0 0 1.119288 0 2.5 0 3.880712 1.119288 5 2.5 5 3.880712 5 5 3.880712 5 2.5Z" fill="#ffffff" fill-opacity=".5"/>
<path transform="matrix(1,0,0,-1,814,93)" d="M5 2.5C5 1.119288 3.880712 0 2.5 0 1.119288 0 0 1.119288 0 2.5 0 3.880712 1.119288 5 2.5 5 3.880712 5 5 3.880712 5 2.5Z" fill="#ffffff" fill-opacity=".15"/>
<path transform="matrix(1,0,0,-1,1133,383)" d="M5 2.5C5 1.119288 3.880712 0 2.5 0 1.119288 0 0 1.119288 0 2.5 0 3.880712 1.119288 5 2.5 5 3.880712 5 5 3.880712 5 2.5Z" fill="#ffffff" fill-opacity=".9"/>
<path transform="matrix(1,0,0,-1,1255,346)" d="M5 2.5C5 1.119288 3.880712 0 2.5 0 1.119288 0 0 1.119288 0 2.5 0 3.880712 1.119288 5 2.5 5 3.880712 5 5 3.880712 5 2.5Z" fill="#ffffff" fill-opacity=".5"/>
<path transform="matrix(1,0,0,-1,1279,291)" d="M5 2.5C5 1.119288 3.880712 0 2.5 0 1.119288 0 0 1.119288 0 2.5 0 3.880712 1.119288 5 2.5 5 3.880712 5 5 3.880712 5 2.5Z" fill="#ffffff" fill-opacity=".15"/>
<path transform="matrix(1,0,0,-1,419,328)" d="M5 2.5C5 1.119288 3.880712 0 2.5 0 1.119288 0 0 1.119288 0 2.5 0 3.880712 1.119288 5 2.5 5 3.880712 5 5 3.880712 5 2.5Z" fill="#ffffff" fill-opacity=".9"/>
<path transform="matrix(1,0,0,-1,541,291)" d="M5 2.5C5 1.119288 3.880712 0 2.5 0 1.119288 0 0 1.119288 0 2.5 0 3.880712 1.119288 5 2.5 5 3.880712 5 5 3.880712 5 2.5Z" fill="#ffffff" fill-opacity=".5"/>
<path transform="matrix(1,0,0,-1,565,236)" d="M5 2.5C5 1.119288 3.880712 0 2.5 0 1.119288 0 0 1.119288 0 2.5 0 3.880712 1.119288 5 2.5 5 3.880712 5 5 3.880712 5 2.5Z" fill="#ffffff" fill-opacity=".15"/>
<path transform="matrix(1,0,0,-1,390,721)" d="M5 2.5C5 1.119288 3.880712 0 2.5 0 1.119288 0 0 1.119288 0 2.5 0 3.880712 1.119288 5 2.5 5 3.880712 5 5 3.880712 5 2.5Z" fill="#ffffff" fill-opacity=".9"/>
<path transform="matrix(1,0,0,-1,512,684)" d="M5 2.5C5 1.119288 3.880712 0 2.5 0 1.119288 0 0 1.119288 0 2.5 0 3.880712 1.119288 5 2.5 5 3.880712 5 5 3.880712 5 2.5Z" fill="#ffffff" fill-opacity=".5"/>
<path transform="matrix(1,0,0,-1,536,629)" d="M5 2.5C5 1.119288 3.880712 0 2.5 0 1.119288 0 0 1.119288 0 2.5 0 3.880712 1.119288 5 2.5 5 3.880712 5 5 3.880712 5 2.5Z" fill="#ffffff" fill-opacity=".15"/>
<path transform="matrix(1,0,0,-1,1234,586)" d="M5 2.5C5 1.119288 3.880712 0 2.5 0 1.119288 0 0 1.119288 0 2.5 0 3.880712 1.119288 5 2.5 5 3.880712 5 5 3.880712 5 2.5Z" fill="#ffffff" fill-opacity=".9"/>
<path transform="matrix(1,0,0,-1,1356,549)" d="M5 2.5C5 1.119288 3.880712 0 2.5 0 1.119288 0 0 1.119288 0 2.5 0 3.880712 1.119288 5 2.5 5 3.880712 5 5 3.880712 5 2.5Z" fill="#ffffff" fill-opacity=".5"/>
<path transform="matrix(1,0,0,-1,1380,494)" d="M5 2.5C5 1.119288 3.880712 0 2.5 0 1.119288 0 0 1.119288 0 2.5 0 3.880712 1.119288 5 2.5 5 3.880712 5 5 3.880712 5 2.5Z" fill="#ffffff" fill-opacity=".15"/>
<path transform="matrix(1,0,0,-1,299,557)" d="M5 2.5C5 1.119288 3.880712 0 2.5 0 1.119288 0 0 1.119288 0 2.5 0 3.880712 1.119288 5 2.5 5 3.880712 5 5 3.880712 5 2.5Z" fill="#ffffff" fill-opacity=".9"/>
<path transform="matrix(1,0,0,-1,1244,257)" d="M5 2.5C5 1.119288 3.880712 0 2.5 0 1.119288 0 0 1.119288 0 2.5 0 3.880712 1.119288 5 2.5 5 3.880712 5 5 3.880712 5 2.5Z" fill="#ffffff" fill-opacity=".9"/>
<path transform="matrix(1,0,0,-1,1366,220)" d="M5 2.5C5 1.119288 3.880712 0 2.5 0 1.119288 0 0 1.119288 0 2.5 0 3.880712 1.119288 5 2.5 5 3.880712 5 5 3.880712 5 2.5Z" fill="#ffffff" fill-opacity=".5"/>
<path transform="matrix(1,0,0,-1,1390,165)" d="M5 2.5C5 1.119288 3.880712 0 2.5 0 1.119288 0 0 1.119288 0 2.5 0 3.880712 1.119288 5 2.5 5 3.880712 5 5 3.880712 5 2.5Z" fill="#ffffff" fill-opacity=".15"/>
<path transform="matrix(1,0,0,-1,312,420)" d="M5 2.5C5 1.119288 3.880712 0 2.5 0 1.119288 0 0 1.119288 0 2.5 0 3.880712 1.119288 5 2.5 5 3.880712 5 5 3.880712 5 2.5Z" fill="#ffffff" fill-opacity=".5"/>
<path transform="matrix(1,0,0,-1,336,365)" d="M5 2.5C5 1.119288 3.880712 0 2.5 0 1.119288 0 0 1.119288 0 2.5 0 3.880712 1.119288 5 2.5 5 3.880712 5 5 3.880712 5 2.5Z" fill="#ffffff" fill-opacity=".15"/>
<path transform="matrix(1,0,0,-1,613,467)" d="M5 2.5C5 1.119288 3.880712 0 2.5 0 1.119288 0 0 1.119288 0 2.5 0 3.880712 1.119288 5 2.5 5 3.880712 5 5 3.880712 5 2.5Z" fill="#ffffff" fill-opacity=".9"/>
<path transform="matrix(1,0,0,-1,735,430)" d="M5 2.5C5 1.119288 3.880712 0 2.5 0 1.119288 0 0 1.119288 0 2.5 0 3.880712 1.119288 5 2.5 5 3.880712 5 5 3.880712 5 2.5Z" fill="#ffffff" fill-opacity=".5"/>
<path transform="matrix(1,0,0,-1,759,375)" d="M5 2.5C5 1.119288 3.880712 0 2.5 0 1.119288 0 0 1.119288 0 2.5 0 3.880712 1.119288 5 2.5 5 3.880712 5 5 3.880712 5 2.5Z" fill="#ffffff" fill-opacity=".15"/>
<path transform="matrix(1,0,0,-1,851,586)" d="M5 2.5C5 1.119288 3.880712 0 2.5 0 1.119288 0 0 1.119288 0 2.5 0 3.880712 1.119288 5 2.5 5 3.880712 5 5 3.880712 5 2.5Z" fill="#ffffff" fill-opacity=".9"/>
<path transform="matrix(1,0,0,-1,973,549)" d="M5 2.5C5 1.119288 3.880712 0 2.5 0 1.119288 0 0 1.119288 0 2.5 0 3.880712 1.119288 5 2.5 5 3.880712 5 5 3.880712 5 2.5Z" fill="#ffffff" fill-opacity=".5"/>
<path transform="matrix(1,0,0,-1,997,494)" d="M5 2.5C5 1.119288 3.880712 0 2.5 0 1.119288 0 0 1.119288 0 2.5 0 3.880712 1.119288 5 2.5 5 3.880712 5 5 3.880712 5 2.5Z" fill="#ffffff" fill-opacity=".15"/>
<path transform="matrix(1,0,0,-1,896,388)" d="M5 2.5C5 1.119288 3.880712 0 2.5 0 1.119288 0 0 1.119288 0 2.5 0 3.880712 1.119288 5 2.5 5 3.880712 5 5 3.880712 5 2.5Z" fill="#ffffff" fill-opacity=".9"/>
<path transform="matrix(1,0,0,-1,1018,351)" d="M5 2.5C5 1.119288 3.880712 0 2.5 0 1.119288 0 0 1.119288 0 2.5 0 3.880712 1.119288 5 2.5 5 3.880712 5 5 3.880712 5 2.5Z" fill="#ffffff" fill-opacity=".5"/>
<path transform="matrix(1,0,0,-1,1042,296)" d="M5 2.5C5 1.119288 3.880712 0 2.5 0 1.119288 0 0 1.119288 0 2.5 0 3.880712 1.119288 5 2.5 5 3.880712 5 5 3.880712 5 2.5Z" fill="#ffffff" fill-opacity=".15"/>
<path transform="matrix(1,0,0,-1,941,190)" d="M5 2.5C5 1.119288 3.880712 0 2.5 0 1.119288 0 0 1.119288 0 2.5 0 3.880712 1.119288 5 2.5 5 3.880712 5 5 3.880712 5 2.5Z" fill="#ffffff" fill-opacity=".9"/>
<path transform="matrix(1,0,0,-1,1063,153)" d="M5 2.5C5 1.119288 3.880712 0 2.5 0 1.119288 0 0 1.119288 0 2.5 0 3.880712 1.119288 5 2.5 5 3.880712 5 5 3.880712 5 2.5Z" fill="#ffffff" fill-opacity=".5"/>
<path transform="matrix(1,0,0,-1,1087,98)" d="M5 2.5C5 1.119288 3.880712 0 2.5 0 1.119288 0 0 1.119288 0 2.5 0 3.880712 1.119288 5 2.5 5 3.880712 5 5 3.880712 5 2.5Z" fill="#ffffff" fill-opacity=".15"/>
</svg>
