<svg xmlns="http://www.w3.org/2000/svg" xmlns:xlink="http://www.w3.org/1999/xlink" version="1.1" width="1440pt" height="724pt" viewBox="0 0 1440 724">
<path transform="matrix(1,0,0,-1,0,724)" d="M0 724H1440V0H0V724Z" fill="#0f124d"/>
<path transform="matrix(1,0,0,-1,92,113)" d="M5 2.5C5 1.119288 3.880712 0 2.5 0 1.119288 0 0 1.119288 0 2.5 0 3.880712 1.119288 5 2.5 5 3.880712 5 5 3.880712 5 2.5Z" fill="#ffffff" fill-opacity=".9"/>
<path transform="matrix(1,0,0,-1,214,76)" d="M5 2.5C5 1.119288 3.880712 0 2.5 0 1.119288 0 0 1.119288 0 2.5 0 3.880712 1.119288 5 2.5 5 3.880712 5 5 3.880712 5 2.5Z" fill="#ffffff" fill-opacity=".5"/>
<path transform="matrix(1,0,0,-1,238,21)" d="M5 2.5C5 1.119288 3.880712 0 2.5 0 1.119288 0 0 1.119288 0 2.5 0 3.880712 1.119288 5 2.5 5 3.880712 5 5 3.880712 5 2.5Z" fill="#ffffff" fill-opacity=".15"/>
<path transform="matrix(1,0,0,-1,380,149)" d="M5 2.5C5 1.119288 3.880712 0 2.5 0 1.119288 0 0 1.119288 0 2.5 0 3.880712 1.119288 5 2.5 5 3.880712 5 5 3.880712 5 2.5Z" fill="#ffffff" fill-opacity=".9"/>
<path transform="matrix(1,0,0,-1,502,112)" d="M5 2.5C5 1.119288 3.880712 0 2.5 0 1.119288 0 0 1.119288 0 2.5 0 3.880712 1.119288 5 2.5 5 3.880712 5 5 3.880712 5 2.5Z" fill="#ffffff" fill-opacity=".5"/>
<path transform="matrix(1,0,0,-1,526,57)" d="M5 2.5C5 1.119288 3.880712 0 2.5 0 1.119288 0 0 1.119288 0 2.5 0 3.880712 1.119288 5 2.5 5 3.880712 5 5 3.880712 5 2.5Z" fill="#ffffff" fill-opacity=".15"/>
<path transform="matrix(1,0,0,-1,668,185)" d="M5 2.5C5 1.119288 3.880712 0 2.5 0 1.119288 0 0 1.119288 0 2.5 0 3.880712 1.119288 5 2.5 5 3.880712 5 5 3.880712 5 2.5Z" fill="#ffffff" fill-opacity=".9"/>
<path transform="matrix(1,0,0,-1,790,148)" d="M5 2.5C5 1.119288 3.880712 0 2.5 0 1.119288 0 0 1.119288 0 2.5 0 3.880712 1.119288 5 2.5 5 3.880712 5 5 3.880712 5 2.5Z" fill="#ffffff" fill-opacity=".5"/>
<path transform="matrix(1,0,0,-1,814,93)" d="M5 2.5C5 1.119288 3.880712 0 2.5 0 1.119288 0 0 1.119288 0 2.5 0 3.880712 1.119288 5 2.5 5 3.880712 5 5 3.880712 5 2.5Z" fill="#ffffff" fill-opacity=".15"/>
<path transform="matrix(1,0,0,-1,1133,383)" d="M5 2.5C5 1.119288 3.880712 0 2.5 0 1.119288 0 0 1.119288 0 2.5 0 3.880712 1.119288 5 2.5 5 3.880712 5 5 3.880712 5 2.5Z" fill="#ffffff" fill-opacity=".9"/>
<path transform="matrix(1,0,0,-1,1255,346)" d="M5 2.5C5 1.119288 3.880712 0 2.5 0 1.119288 0 0 1.119288 0 2.5 0 3.880712 1.119288 5 2.5 5 3.880712 5 5 3.880712 5 2.5Z" fill="#ffffff" fill-opacity=".5"/>
<path transform="matrix(1,0,0,-1,1279,291)" d="M5 2.5C5 1.119288 3.880712 0 2.5 0 1.119288 0 0 1.119288 0 2.5 0 3.880712 1.119288 5 2.5 5 3.880712 5 5 3.880712 5 2.5Z" fill="#ffffff" fill-opacity=".15"/>
<path transform="matrix(1,0,0,-1,419,328)" d="M5 2.5C5 1.119288 3.880712 0 2.5 0 1.119288 0 0 1.119288 0 2.5 0 3.880712 1.119288 5 2.5 5 3.880712 5 5 3.880712 5 2.5Z" fill="#ffffff" fill-opacity=".9"/>
<path transform="matrix(1,0,0,-1,541,291)" d="M5 2.5C5 1.119288 3.880712 0 2.5 0 1.119288 0 0 1.119288 0 2.5 0 3.880712 1.119288 5 2.5 5 3.880712 5 5 3.880712 5 2.5Z" fill="#ffffff" fill-opacity=".5"/>
<path transform="matrix(1,0,0,-1,565,236)" d="M5 2.5C5 1.119288 3.880712 0 2.5 0 1.119288 0 0 1.119288 0 2.5 0 3.880712 1.119288 5 2.5 5 3.880712 5 5 3.880712 5 2.5Z" fill="#ffffff" fill-opacity=".15"/>
<path transform="matrix(1,0,0,-1,390,721)" d="M5 2.5C5 1.119288 3.880712 0 2.5 0 1.119288 0 0 1.119288 0 2.5 0 3.880712 1.119288 5 2.5 5 3.880712 5 5 3.880712 5 2.5Z" fill="#ffffff" fill-opacity=".9"/>
<path transform="matrix(1,0,0,-1,512,684)" d="M5 2.5C5 1.119288 3.880712 0 2.5 0 1.119288 0 0 1.119288 0 2.5 0 3.880712 1.119288 5 2.5 5 3.880712 5 5 3.880712 5 2.5Z" fill="#ffffff" fill-opacity=".5"/>
<path transform="matrix(1,0,0,-1,536,629)" d="M5 2.5C5 1.119288 3.880712 0 2.5 0 1.119288 0 0 1.119288 0 2.5 0 3.880712 1.119288 5 2.5 5 3.880712 5 5 3.880712 5 2.5Z" fill="#ffffff" fill-opacity=".15"/>
<path transform="matrix(1,0,0,-1,1234,586)" d="M5 2.5C5 1.119288 3.880712 0 2.5 0 1.119288 0 0 1.119288 0 2.5 0 3.880712 1.119288 5 2.5 5 3.880712 5 5 3.880712 5 2.5Z" fill="#ffffff" fill-opacity=".9"/>
<path transform="matrix(1,0,0,-1,1356,549)" d="M5 2.5C5 1.119288 3.880712 0 2.5 0 1.119288 0 0 1.119288 0 2.5 0 3.880712 1.119288 5 2.5 5 3.880712 5 5 3.880712 5 2.5Z" fill="#ffffff" fill-opacity=".5"/>
<path transform="matrix(1,0,0,-1,1380,494)" d="M5 2.5C5 1.119288 3.880712 0 2.5 0 1.119288 0 0 1.119288 0 2.5 0 3.880712 1.119288 5 2.5 5 3.880712 5 5 3.880712 5 2.5Z" fill="#ffffff" fill-opacity=".15"/>
<path transform="matrix(1,0,0,-1,299,557)" d="M5 2.5C5 1.119288 3.880712 0 2.5 0 1.119288 0 0 1.119288 0 2.5 0 3.880712 1.119288 5 2.5 5 3.880712 5 5 3.880712 5 2.5Z" fill="#ffffff" fill-opacity=".9"/>
<path transform="matrix(1,0,0,-1,1244,257)" d="M5 2.5C5 1.119288 3.880712 0 2.5 0 1.119288 0 0 1.119288 0 2.5 0 3.880712 1.119288 5 2.5 5 3.880712 5 5 3.880712 5 2.5Z" fill="#ffffff" fill-opacity=".9"/>
<path transform="matrix(1,0,0,-1,1366,220)" d="M5 2.5C5 1.119288 3.880712 0 2.5 0 1.119288 0 0 1.119288 0 2.5 0 3.880712 1.119288 5 2.5 5 3.880712 5 5 3.880712 5 2.5Z" fill="#ffffff" fill-opacity=".5"/>
<path transform="matrix(1,0,0,-1,1390,165)" d="M5 2.5C5 1.119288 3.880712 0 2.5 0 1.119288 0 0 1.119288 0 2.5 0 3.880712 1.119288 5 2.5 5 3.880712 5 5 3.880712 5 2.5Z" fill="#ffffff" fill-opacity=".15"/>
<path transform="matrix(1,0,0,-1,312,420)" d="M5 2.5C5 1.119288 3.880712 0 2.5 0 1.119288 0 0 1.119288 0 2.5 0 3.880712 1.119288 5 2.5 5 3.880712 5 5 3.880712 5 2.5Z" fill="#ffffff" fill-opacity=".5"/>
<path transform="matrix(1,0,0,-1,336,365)" d="M5 2.5C5 1.119288 3.880712 0 2.5 0 1.119288 0 0 1.119288 0 2.5 0 3.880712 1.119288 5 2.5 5 3.880712 5 5 3.880712 5 2.5Z" fill="#ffffff" fill-opacity=".15"/>
<path transform="matrix(1,0,0,-1,613,467)" d="M5 2.5C5 1.119288 3.880712 0 2.5 0 1.119288 0 0 1.119288 0 2.5 0 3.880712 1.119288 5 2.5 5 3.880712 5 5 3.880712 5 2.5Z" fill="#ffffff" fill-opacity=".9"/>
<path transform="matrix(1,0,0,-1,735,430)" d="M5 2.5C5 1.119288 3.880712 0 2.5 0 1.119288 0 0 1.119288 0 2.5 0 3.880712 1.119288 5 2.5 5 3.880712 5 5 3.880712 5 2.5Z" fill="#ffffff" fill-opacity=".5"/>
<path transform="matrix(1,0,0,-1,759,375)" d="M5 2.5C5 1.119288 3.880712 0 2.5 0 1.119288 0 0 1.119288 0 2.5 0 3.880712 1.119288 5 2.5 5 3.880712 5 5 3.880712 5 2.5Z" fill="#ffffff" fill-opacity=".15"/>
<path transform="matrix(1,0,0,-1,851,586)" d="M5 2.5C5 1.119288 3.880712 0 2.5 0 1.119288 0 0 1.119288 0 2.5 0 3.880712 1.119288 5 2.5 5 3.880712 5 5 3.880712 5 2.5Z" fill="#ffffff" fill-opacity=".9"/>
<path transform="matrix(1,0,0,-1,973,549)" d="M5 2.5C5 1.119288 3.880712 0 2.5 0 1.119288 0 0 1.119288 0 2.5 0 3.880712 1.119288 5 2.5 5 3.880712 5 5 3.880712 5 2.5Z" fill="#ffffff" fill-opacity=".5"/>
<path transform="matrix(1,0,0,-1,997,494)" d="M5 2.5C5 1.119288 3.880712 0 2.5 0 1.119288 0 0 1.119288 0 2.5 0 3.880712 1.119288 5 2.5 5 3.880712 5 5 3.880712 5 2.5Z" fill="#ffffff" fill-opacity=".15"/>
<path transform="matrix(1,0,0,-1,896,388)" d="M5 2.5C5 1.119288 3.880712 0 2.5 0 1.119288 0 0 1.119288 0 2.5 0 3.880712 1.119288 5 2.5 5 3.880712 5 5 3.880712 5 2.5Z" fill="#ffffff" fill-opacity=".9"/>
<path transform="matrix(1,0,0,-1,1018,351)" d="M5 2.5C5 1.119288 3.880712 0 2.5 0 1.119288 0 0 1.119288 0 2.5 0 3.880712 1.119288 5 2.5 5 3.880712 5 5 3.880712 5 2.5Z" fill="#ffffff" fill-opacity=".5"/>
<path transform="matrix(1,0,0,-1,1042,296)" d="M5 2.5C5 1.119288 3.880712 0 2.5 0 1.119288 0 0 1.119288 0 2.5 0 3.880712 1.119288 5 2.5 5 3.880712 5 5 3.880712 5 2.5Z" fill="#ffffff" fill-opacity=".15"/>
<path transform="matrix(1,0,0,-1,941,190)" d="M5 2.5C5 1.119288 3.880712 0 2.5 0 1.119288 0 0 1.119288 0 2.5 0 3.880712 1.119288 5 2.5 5 3.880712 5 5 3.880712 5 2.5Z" fill="#ffffff" fill-opacity=".9"/>
<path transform="matrix(1,0,0,-1,1063,153)" d="M5 2.5C5 1.119288 3.880712 0 2.5 0 1.119288 0 0 1.119288 0 2.5 0 3.880712 1.119288 5 2.5 5 3.880712 5 5 3.880712 5 2.5Z" fill="#ffffff" fill-opacity=".5"/>
<path transform="matrix(1,0,0,-1,1087,98)" d="M5 2.5C5 1.119288 3.880712 0 2.5 0 1.119288 0 0 1.119288 0 2.5 0 3.880712 1.119288 5 2.5 5 3.880712 5 5 3.880712 5 2.5Z" fill="#ffffff" fill-opacity=".15"/>
<path transform="matrix(1,0,0,-1,803,725.4922)" d="M112.527 26.13498C125.89193 23.144867 140.44828 26.484879 151.33509 36.43074 162.38074 46.530336 167.02457 61.019685 165.04949 74.798618 176.17458 69.31143 189.9843 70.82239 199.70088 79.70262 208.52788 87.7717 211.61495 99.76398 208.77675 110.584598 212.60514 111.06705 216.3329 112.67343 219.39879 115.478 225.55175 121.10303 227.21443 129.7871 224.23856 137.08213 229.40132 139.99272 233.38327 144.73767 235.3107 150.44223 237.28049 149.92798 239.33498 149.62049 241.46892 149.62049 254.83386 149.62049 265.67304 160.4729 265.67304 173.85422 265.67304 175.70447 265.4453 177.49643 265.05348 179.23006 273.66337 181.19165 280.0864 188.88431 280.0864 198.08795 280.0864 202.70566 278.47138 206.93636 275.78144 210.26049 279.37684 210.48316 282.9405 211.75025 286.00108 214.12537 291.66688 218.52573 294.09205 225.55037 292.91123 232.1615 295.2252 232.26224 297.52857 233.05217 299.49836 234.57904 304.5552 238.50756 305.47657 245.80258 301.54759 250.86565 297.62388 255.9287 290.34306 256.85118 285.2809 252.92267 283.07814 251.20494 281.65904 248.85103 281.08717 246.32215 275.24134 248.50112 268.44767 247.71117 263.1578 243.60242 259.0223 240.38964 256.61833 235.77191 256.0729 230.94744 246.86467 238.94229 233.0126 239.59439 223.01538 231.83281 213.26703 224.25678 210.38117 211.13526 215.29506 200.36234 211.25487 200.60622 207.10877 199.45047 203.65634 196.76784 199.64792 193.65579 197.40279 189.1335 197.02683 184.44156 193.95035 184.51047 190.8633 184.00682 187.91391 182.9094 184.19672 182.49056 180.54836 181.08032 177.37657 178.62036 172.78038 175.05237 170.06398 169.95221 169.3862 164.60288 157.29741 173.1756 140.57537 173.27634 128.26946 163.7069 115.35991 153.68152 111.536808 136.31339 118.04453 122.05202 112.69115 122.37012 107.20539 120.84325 102.63039 117.29115 97.55235 113.34674 94.587078 107.6846 93.909297 101.757389 93.51216 101.41809 93.109729 101.078769 92.72318 100.71826 91.96068 100.02374 91.23525 99.302738 90.53629 98.56581 82.84245 100.135089 74.53438 98.46507 67.841327 93.264179 64.65894 90.78833 62.175527 87.7558 60.380475 84.41046 48.57231 92.74463 32.882814 95.00841 18.570054 89.01227 16.555199 88.17056 14.638267 87.19455 12.824857 86.099 3.016749 80.17349 0 68.0412 0 56.582124 0 26.157242 24.66423 1.493011 55.08911 1.493011H107.99436C113.23655 8.671417 114.788028 17.784913 112.527 26.13498Z" fill="#f7eedc"/>
<path transform="matrix(1,0,0,-1,877.7045,725.6341)" d="M107.01404 18.276749C107.654758 19.056092 108.284877 19.856644 108.87793 20.69429 109.18505 21.123734 109.47628 21.558457 109.762218 21.99849 115.53392 23.376923 120.76552 26.98732 124.0538 32.490419 127.01378 37.43683 127.86101 43.051256 126.90788 48.310457 141.76604 43.57611 158.45102 49.439714 166.80675 63.414796 174.77594 76.74307 172.67906 93.27884 162.76656 104.21608 167.96639 105.52559 172.67377 108.82851 175.64965 113.80142 177.69886 117.23158 178.65198 121.01694 178.62021 124.73868 179.35094 127.79241 179.47803 130.90976 179.04383 133.94229 183.62941 134.87538 187.82317 137.64282 190.41779 141.97956 192.65233 145.71721 193.29305 149.9585 192.5729 153.93473 203.7933 150.35613 216.40103 154.78299 222.71283 165.33853 229.1835 176.16445 226.87482 189.79492 217.88367 197.94882 222.58046 199.06217 226.84835 201.99396 229.52768 206.47383 232.94834 212.19959 232.91657 219.01747 230.06778 224.54178 232.49295 225.41124 234.64807 227.09716 236.07776 229.48819 239.35016 234.96477 237.571 242.05834 232.10112 245.34004 226.63124 248.61646 219.54105 246.8351 216.26865 241.35852 214.99782 239.22727 214.49478 236.85214 214.67482 234.54593 208.00293 234.92766 201.35755 231.68836 197.6933 225.55438 195.71292 222.23557 194.89217 218.55625 195.09868 214.97234 191.49269 217.23613 187.1242 218.33358 182.57039 217.7822 173.47863 216.67946 166.6532 209.39504 165.75302 200.64205 163.99504 200.8276 162.19998 200.8329 160.37316 200.61023 147.16179 199.00916 137.74703 186.98506 139.34616 173.7575 139.60033 171.64746 140.14572 169.64875 140.89765 167.76137 135.4966 165.16889 131.28166 160.66249 129.03124 155.20182 121.46977 157.28006 113.092868 154.58683 108.27958 147.82726 105.88088 144.45542 104.73713 140.57463 104.721248 136.73096 93.69677 138.24723 82.227489 133.75144 75.322628 124.04947 67.7188 113.371997 67.87766 99.524158 74.62897 89.170078 60.787469 89.47226 47.04129 83.142139 38.39433 71.00142 29.879744 59.040956 28.32827 44.238817 32.876794 31.36647 22.551272 32.86682 11.780957 28.699753 5.310298 19.612763 1.428961 14.167999-.254894 7.83255 .031044 1.634949H107.31057C108.93617 7.159241 108.77732 12.969833 107.01404 18.276749Z" fill="#afced8"/>
<path transform="matrix(1,0,0,-1,1114.3611,725.4922)" d="M298.6389 64.47836C298.6389 74.624668 294.7758 85.09323 285.41694 89.01227 271.10417 95.00841 255.41468 92.74463 243.60121 84.41046 241.81147 87.7558 239.32805 90.78833 236.14037 93.264179 229.4526 98.46507 221.14453 100.135089 213.4507 98.56581 212.75174 99.302738 212.0263 100.02374 211.26381 100.71826 210.87197 101.078769 210.47484 101.41809 210.0777 101.757389 209.39992 107.6846 206.43463 113.34674 201.3513 117.29115 196.78159 120.84325 191.29584 122.37012 185.93715 122.05202 192.45018 136.31339 188.62709 153.68152 175.71755 163.7069 163.40634 173.27634 146.6843 173.1756 134.60079 164.60288 133.91771 169.95221 131.2013 175.05237 126.61041 178.62036 123.43862 181.08032 119.790279 182.49056 116.07309 182.9094 113.123699 184.00682 110.031337 184.51047 106.96016 184.44156 106.584209 189.1335 104.33376 193.65579 100.33064 196.76784 96.87821 199.45047 92.73212 200.60622 88.68663 200.36234 93.60581 211.13526 90.71467 224.25678 80.96632 231.83281 70.96909 239.59439 57.117017 238.94229 47.908769 230.94744 47.368665 235.77191 44.96467 240.38964 40.829168 243.60242 35.53932 247.71117 28.740365 248.50112 22.899827 246.32215 22.322655 248.85103 20.908854 251.20494 18.700779 252.92267 13.643923 256.85118 6.363108 255.9287 2.434114 250.86565-1.489584 245.80258-.573525 238.50756 4.488628 234.57904 6.453125 233.05217 8.761805 232.26224 11.07578 232.1615 9.894965 225.55037 12.314842 218.52573 17.985938 214.12537 21.046528 211.75025 24.610156 210.48316 28.20026 210.26049 25.515625 206.93636 23.895314 202.70566 23.895314 198.08795 23.895314 188.88431 30.323613 181.19165 38.92821 179.23006 38.536375 177.49643 38.313978 175.70447 38.313978 173.85422 38.313978 160.4729 49.14783 149.62049 62.518056 149.62049 64.652 149.62049 66.70651 149.92798 68.6763 150.44223 70.60374 144.73767 74.58568 139.99272 79.748439 137.08213 76.76727 129.7871 78.43524 121.10303 84.588199 115.478 87.65408 112.67343 91.38185 111.06705 95.21024 110.584598 92.36675 99.76398 95.459117 87.7717 104.28611 79.70262 114.00269 70.82239 127.812419 69.31143 138.9375 74.798618 136.96242 61.019685 141.60625 46.530336 152.65192 36.43074 163.53342 26.484879 178.08975 23.144867 191.45998 26.13498 189.19896 17.784913 190.74515 8.671417 195.99263 1.493011H243.40375C273.90928 1.493011 298.6389 26.222626 298.6389 56.728136V64.47836Z" fill="#f7eedc"/>
<path transform="matrix(1,0,0,-1,1100.7559,725.6341)" d="M232.40923 19.612763C225.93857 28.699753 215.16297 32.86682 204.84275 31.36647 209.39127 44.238817 207.83449 59.040956 199.3199 71.00142 190.67824 83.142139 176.93207 89.47226 163.08528 89.170078 169.83658 99.524158 169.99544 113.371997 162.39691 124.04947 155.48676 133.75144 144.01749 138.24723 132.99301 136.73096 132.98242 140.57463 131.83338 144.45542 129.43468 147.82726 124.62139 154.58683 116.244487 157.28006 108.68832 155.20182 106.43788 160.66249 102.22295 165.16889 96.821918 167.76137 97.56853 169.64875 98.11393 171.64746 98.37339 173.7575 99.97252 186.98506 90.55777 199.00916 77.3464 200.61023 75.51958 200.8329 73.71923 200.8276 71.96654 200.64205 71.06107 209.39504 64.24094 216.67946 55.14918 217.7822 50.595365 218.33358 46.221578 217.23613 42.615587 214.97234 42.827394 218.55625 42.006647 222.23557 40.026266 225.55438 36.35673 231.68836 29.711335 234.92766 23.044754 234.54593 23.219494 236.85214 22.721753 239.22727 21.450919 241.35852 18.173228 246.8351 11.088334 248.61646 5.618455 245.34004 .148578 242.05834-1.635885 234.96477 1.641806 229.48819 3.066198 227.09716 5.221321 225.41124 7.651788 224.54178 4.803005 219.01747 4.765938 212.19959 8.191893 206.47383 10.865937 201.99396 15.133819 199.06217 19.835902 197.94882 10.83946 189.79492 8.536076 176.16445 15.006735 165.33853 21.31854 154.78299 33.92097 150.35613 45.146665 153.93473 44.42123 149.9585 45.061944 145.71721 47.301786 141.97956 49.89111 137.64282 54.090154 134.87538 58.675745 133.94229 58.236249 130.90976 58.36333 127.79241 59.09406 124.73868 59.067586 121.01694 60.02071 117.23158 62.069929 113.80142 65.04579 108.82851 69.74788 105.52559 74.952999 104.21608 65.0405 93.27884 62.943628 76.74307 70.91281 63.414796 79.26324 49.439714 95.953517 43.57611 110.81167 48.310457 109.85325 43.051256 110.705768 37.43683 113.66575 32.490419 116.95403 26.98732 122.18563 23.376923 127.95733 21.99849 128.24327 21.558457 128.5345 21.123734 128.83632 20.69429 129.43468 19.856644 130.0595 19.056092 130.7055 18.276749 128.93694 12.969833 128.77808 7.159241 130.40369 1.634949H237.68848C237.97441 7.83255 236.28527 14.167999 232.40923 19.612763Z" fill="#afced8"/>
<path transform="matrix(1,0,0,-1,963.24148,725.00418)" d="M91.563549 26.500473C93.38508 28.584015 94.825359 31.059876 95.69905 33.88034 97.531169 39.791658 96.54627 45.90973 93.50157 50.776628 93.82457 51.444627 94.13169 52.123247 94.41233 52.82306 94.555309 53.183565 94.68768 53.544069 94.82006 53.904588 98.6961 55.88739 101.79905 59.37056 103.19697 63.86104 104.446628 67.90088 104.086559 72.05205 102.492717 75.635959 113.90374 74.83011 124.79054 81.90248 128.333 93.311588 131.71129 104.19052 127.35869 115.62083 118.40461 121.69649 121.883518 123.536159 124.66876 126.701229 125.929 130.76227 126.8027 133.56684 126.82918 136.42441 126.16199 139.07523 126.15669 141.37613 125.706607 143.62403 124.86997 145.71286 127.97822 147.1708 130.49341 149.86933 131.5948 153.41082 132.54264 156.46456 132.26729 159.59781 131.06529 162.30695 139.68578 161.69727 147.90383 167.036 150.58318 175.65644 153.32605 184.49425 149.32292 193.80922 141.50731 198.06642 144.66321 199.67812 147.19957 202.50388 148.33803 206.162 149.7889 210.83805 148.5816 215.69434 145.60045 219.13509 147.17839 220.1795 148.42276 221.74878 149.0317 223.69979 150.41902 228.17436 147.92502 232.92462 143.45592 234.31365 138.99211 235.70267 134.24767 233.2056 132.86034 228.73633 132.31494 226.9921 132.37319 225.21605 132.8974 223.60436 128.07883 222.71898 123.90096 219.25702 122.34419 214.25229 121.502269 211.54315 121.555217 208.781 122.32301 206.26274 119.36303 207.24884 116.05886 207.27535 112.90826 206.09308 106.612339 203.72856 103.00635 197.356 103.87475 190.96224 102.59332 190.7873 101.3066 190.4798 100.046367 190.00795 90.90166 186.57779 86.26841 176.37747 89.69437 167.22156 90.23976 165.7583 90.97579 164.4276 91.8336 163.21353 88.43412 160.43018 86.21017 156.49106 85.54298 152.20734 79.79775 152.377 74.2908 149.01047 72.02978 143.35364 70.89662 140.53847 70.75365 137.57486 71.40495 134.82862 63.287508 134.00156 55.8849 128.81128 52.63898 120.69448 49.059465 111.76654 51.56936 101.92673 58.167108 95.70792 48.24931 93.528949 39.538805 86.636829 35.477434 76.48421 31.469012 66.48004 32.91988 55.659425 38.384466 47.272249 30.770054 46.556535 23.806946 41.71614 20.762242 34.11891 18.405905 28.234116 18.898352 21.930466 21.561808 16.69246 12.300608 15.918427 3.807204 10.139648 0 1.004959H105.43152C105.18794 11.544586 99.776309 20.891358 91.563549 26.500473Z" fill="#ffffff"/>
<path transform="matrix(1,0,0,-1,1101.3119,725.00418)" d="M129.8901 16.69246C132.54827 21.930466 133.04071 28.234116 130.68439 34.11891 127.63968 41.71614 120.68186 46.556535 113.06216 47.272249 118.52674 55.659425 119.97761 66.48004 115.969188 76.48421 111.907817 86.636829 103.19731 93.528949 93.27951 95.70792 99.87726 101.92673 102.38715 111.76654 98.812938 120.69448 95.561717 128.81128 88.15911 134.00156 80.03637 134.82862 80.69296 137.57486 80.549999 140.53847 79.41684 143.35364 77.155818 149.01047 71.648868 152.377 65.90364 152.20734 65.23645 156.49106 63.012495 160.43018 59.613016 163.21353 60.470827 164.4276 61.206853 165.7583 61.75225 167.22156 65.17821 176.37747 60.54496 186.57779 51.400255 190.00795 50.14001 190.4798 48.85329 190.7873 47.571866 190.96224 48.44027 197.356 44.83428 203.72856 38.538358 206.09308 35.38775 207.27535 32.083585 207.24884 29.1236 206.26274 29.891396 208.781 29.939053 211.54315 29.102419 214.25229 27.545649 219.25702 23.367785 222.71898 18.554503 223.60436 19.073428 225.21605 19.131672 226.9921 18.586274 228.73633 17.198946 233.2056 12.4545 235.70267 7.990698 234.31365 3.5216 232.92462 1.02759 228.17436 2.414916 223.69979 3.023857 221.74878 4.268216 220.1795 5.846167 219.13509 2.865004 215.69434 1.657712 210.83805 3.113874 206.162 4.247035 202.50388 6.783406 199.67812 9.939309 198.06642 2.118387 193.80922-1.879442 184.49425 .86344 175.65644 3.542781 167.036 11.760838 161.69727 20.381325 162.30695 19.179329 159.59781 18.90398 156.46456 19.85181 153.41082 20.9532 149.86933 23.46839 147.1708 26.576638 145.71286 25.740006 143.62403 25.289919 141.37613 25.284625 139.07523 24.617436 136.42441 24.643912 133.56684 25.517609 130.76227 26.777853 126.701229 29.557803 123.536159 33.042005 121.69649 24.087924 115.62083 19.735316 104.19052 23.113615 93.311588 26.656065 81.90248 37.542875 74.83011 48.9539 75.635959 47.36006 72.05205 46.994699 67.90088 48.249647 63.86104 49.64756 59.37056 52.75051 55.88739 56.626558 53.904588 56.758935 53.544069 56.886018 53.183565 57.034284 52.82306 57.314924 52.123247 57.622045 51.444627 57.945047 50.776628 54.90034 45.90973 53.915445 39.791658 55.747564 33.88034 56.626558 31.059876 58.06154 28.584015 59.883069 26.500473 51.670305 20.891358 46.25867 11.544586 46.015096 1.004959H151.44663C147.63942 10.139648 139.14601 15.918427 129.8901 16.69246Z" fill="#ffffff"/>
<path transform="matrix(1,0,0,-1,1065.8416,451.09266)" d="M30.652146 52.910219C-3.512109 42.91135-.652731 8.843098 .70812-.000015 .877564 7.533596 2.243711 19.128254 8.311943 27.653269 13.178179 34.487066 21.041464 39.35926 33.755098 38.569318L31.202839 50.37074 30.652146 52.910219Z" fill="#c62b0c"/>
<path transform="matrix(1,0,0,-1,1116.4033,451.09266)" d="M3.102955 52.910219 2.557555 50.37074 0 38.569318C12.713642 39.35926 20.582228 34.487066 25.443169 27.653269 31.5167 19.128254 32.877553 7.533596 33.05229-.000015 34.413145 8.843098 37.272523 42.91135 3.102955 52.910219Z" fill="#c62b0c"/>
<path transform="matrix(1,0,0,-1,1049.5735,391.9546)" d="M23.192685 33.115545C23.192685 33.115545 8.085667 23.890717 0 2.472153 9.107629 16.701714 25.649626 37.128873 39.988847 25.809905L39.978258 25.889428C38.140844 34.361429 30.589985 37.61132 23.192685 33.115545Z" fill="#f79e0e"/>
<path transform="matrix(1,0,0,-1,1044.6055,482.41575)" d="M44.956926 116.27104C30.61769 127.59002 14.075677 107.16285 4.968039 92.93327-.406527 78.687808-2.683437 59.055875 4.682101 33.12561 6.89547 25.32692 9.929585 16.992753 14.065087 8.032997 19.476719 8.032997 23.125069 15.084167 22.177239 23.704613 22.177239 23.704613 21.83835 26.774254 21.944252 31.323052 20.583403 40.16617 17.724028 74.234439 51.88826 84.23331L51.448766 86.27974 44.956926 116.27104Z" fill="#ffdc0d"/>
<path transform="matrix(1,0,0,-1,1126.856,392.48439)" d="M16.383164 33.64532C9.441235 37.865419 2.356338 35.262319 0 27.919566 14.190976 35.62283 30.75947 15.67811 39.861818 2.196075 31.86086 24.18192 16.383164 33.64532 16.383164 33.64532Z" fill="#f79e0e"/>
<path transform="matrix(1,0,0,-1,1119.5064,480.3696)" d="M7.349648 115.80479C7.196089 115.32234 7.058416 114.82929 6.947217 114.30443L.444791 84.2336 0 82.187168C34.169507 72.18829 31.310135 38.12004 29.949284 29.276932 30.055188 24.728135 29.716298 21.658493 29.716298 21.658493 28.76847 13.03804 32.416818 5.986877 37.828447 5.986877 41.963949 14.946632 44.992765 23.280785 47.211427 31.079483 54.439287 56.527296 52.37418 75.89944 47.211427 90.08129 38.10909 103.56333 21.54061 123.50805 7.349648 115.80479Z" fill="#ffdc0d"/>
<path transform="matrix(1,0,0,-1,1075.0905,334.22358)" d="M33.439085 101.26637C21.720936 101.26637 10.971803 97.22653 2.414856 90.50937-.100335 71.163738-.926377 45.652307 1.271106 12.024086 1.525272 8.13269 1.821799 4.119362 2.165984 0H64.71218C65.05107 4.119362 65.3529 8.13269 65.60706 12.024086 67.80454 45.652307 66.973209 71.163738 64.46331 90.50937 55.906366 97.22653 45.15193 101.26637 33.439085 101.26637Z" fill="#6699cc"/>
<path transform="matrix(1,0,0,-1,1077.2565,345.37294)" d="M1.000781 0H61.54539C61.905466 3.79596 62.24435 7.5283 62.546175 11.149307H0C.296528 7.5283 .635417 3.79596 1.000781 0Z" fill="#ff6633"/>
<path transform="matrix(1,0,0,-1,1078.2572,357.0736)" d="M.254167 9.012772C13.666753 2.364527 34.12717-.000003 60.21632 8.339464 60.33281 9.479314 60.43342 10.582054 60.544618 11.700699H0C.084722 10.804724 .16415 9.919351 .254167 9.012772Z" fill="#c62b0c"/>
<path transform="matrix(1,0,0,-1,1078.5114,377.99385)" d="M3.357118 .837658 56.567975 0C57.918233 10.290457 59.040803 20.024243 59.96216 29.259676L0 29.932984C.916059 20.750567 2.022743 11.069798 3.357118 .837658Z" fill="#e2dbd5"/>
<path transform="matrix(1,0,0,-1,1081.8685,435.60417)" d="M0 58.44798C2.033333 42.83469 4.59618 25.922505 7.725607 7.684914 7.916232 6.571571 8.09097 5.500645 8.286892 4.371399H45.035154C45.22048 5.442326 45.384634 6.454937 45.56996 7.50996 48.65173 25.48777 51.193399 42.18259 53.210847 57.61032 28.821438 68.3196 10.060762 63.24595 0 58.44798Z" fill="#6699cc"/>
<path transform="matrix(1,0,0,-1,1077.5054,243.71424)" d="M52.056478 38.951055C45.65466 41.925268 38.548589 43.60588 31.024199 43.60588 23.499814 43.60588 16.388443 41.925268 9.986626 38.951055 7.60911 33.713048 5.358676 27.229157 3.436543 19.165383 2.107464 13.561563 .93724 7.215515 0 .000004 8.556939 6.717163 19.306065 10.757004 31.024199 10.757004 42.737039 10.757004 53.49146 6.717163 62.048398 .000004 61.11116 7.215515 59.93564 13.561563 58.60656 19.165383 56.68972 27.229157 54.43929 33.713048 52.056478 38.951055Z" fill="#f79e0e"/>
<path transform="matrix(1,0,0,-1,1087.492,204.76319)" d="M21.03759 21.763176C21.03759 21.763176 9.515366 20.978535 0-.000002 6.401824 2.974211 13.513197 4.654825 21.03759 4.654825 28.561984 4.654825 35.66806 2.974211 42.069887-.000002 32.559816 20.978535 21.03759 21.763176 21.03759 21.763176Z" fill="#6699cc"/>
<path transform="matrix(1,0,0,-1,1076.4789,334.01808)" d="M0 17.758362C0 7.950684 7.9507 0 17.758378 0 27.566054 0 35.516756 7.950691 35.516756 17.75837V83.51257C35.516756 93.32025 27.566054 101.270938 17.758378 101.270938 7.9507 101.270938 0 93.320247 0 83.512569V17.758362Z" fill="#8cb3d9"/>
<path transform="matrix(1,0,0,-1,1079.2844,345.37294)" d="M29.409163 0H1.043141C.672481 3.668721 .317708 7.390459 0 11.149307H29.93338C29.75864 7.39576 29.5839 3.668721 29.409163 0Z" fill="#ff8c48"/>
<path transform="matrix(1,0,0,-1,1080.3276,348.40016)" d="M28.217795 0 .280642 .312797C.185329 1.214076 .090017 2.120656 0 3.027237H28.366059C28.313107 2.014623 28.265452 1.012614 28.217795 0Z" fill="#d46011"/>
<path transform="matrix(1,0,0,-1,1080.6083,376.16477)" d="M3.463022 0C3.113544 2.396336 2.832901 4.395048 2.642275 5.805283 1.715625 12.898861 .810156 20.363554 0 28.077424L27.937165 27.764628C27.54003 19.674344 27.132304 11.854441 26.735169 4.506384 26.502182 4.506384 26.269196 4.511686 26.03621 4.511686 16.679694 4.511686 9.028216 2.353922 3.463022 0Z" fill="#e9e4e0"/>
<path transform="matrix(1,0,0,-1,1084.0713,427.19294)" d="M19.97855 .000011H7.863277C7.863277 .000011 2.366926 34.799894 0 51.02817 5.565189 53.382097 13.21666 55.539857 22.573166 55.539857 22.806153 55.539857 23.039139 55.534555 23.272126 55.534555 21.540616 23.35368 19.97855 .000011 19.97855 .000011Z" fill="#8cb3d9"/>
<path transform="matrix(1,0,0,-1,1080.8253,241.31787)" d="M0 0C1.15434 6.987545 2.615797 13.768326 4.437323 20.257517 6.433589 27.372303 8.80581 33.442667 11.262753 38.420896 16.409625 40.223447 21.937747 41.20955 27.704148 41.20955 28.413697 41.20955 29.123244 41.19364 29.827496 41.161836 30.648243 32.954916 31.034787 21.57232 31.10892 8.24403 29.98635 8.318253 28.847897 8.360664 27.704148 8.360664 17.45806 8.360664 7.947997 5.269817 0 0Z" fill="#ffdc0d"/>
<path transform="matrix(1,0,0,-1,1092.0881,202.89698)" d="M0-.000004C5.422223 11.00087 11.241581 16.705422 14.296876 16.710724 16.309029 16.710724 17.685767 11.55224 18.564759 2.740937 17.860505 2.772746 17.150958 2.788651 16.441409 2.788651 10.675001 2.788651 5.146875 1.802549 0-.000004Z" fill="#8cb3d9"/>
<path transform="matrix(1,0,0,-1,1099.0935,474.38273)" d="M9.382996 120.304538C5.941151 120.304538 0 117.510578 0 114.06452L6.295927 6.245316C6.295927 2.799255 7.084903 0 9.382996 0 12.099404 0 12.470065 2.799255 12.470065 6.245316L18.765992 114.06452C18.765992 117.510578 12.824839 120.304538 9.382996 120.304538Z" fill="#ffdc0d"/>
<path transform="matrix(1,0,0,-1,1109.6467,324.5905)" d="M0 0C.015886 .302193 .026475 .625592 .042361 .927784 5.189238 1.505661 9.192364 5.879498 9.192364 11.186422 9.192364 12.935957 8.758162 14.584763 7.990367 16.032105 9.081167 14.393904 9.716583 12.4217 9.716583 10.306353 9.716583 4.80327 5.422224 .307495 0 0Z" fill="#3679c6"/>
<path transform="matrix(1,0,0,-1,1099.9408,324.61177)" d="M9.112935 0C5.162761 0 1.73151 2.22669 0 5.497803 1.848003 2.714441 5.003907 .885375 8.588717 .885375 8.980557 .885375 9.367103 .906581 9.748352 .948994 9.732467 .646801 9.721877 .3234 9.705991 .021207 9.510072 .005301 9.31415 0 9.112935 0Z" fill="#4a9bd5"/>
<path transform="matrix(1,0,0,-1,1098.2146,323.72639)" d="M10.314934 20.644532C4.622657 20.644532 0 16.026814 0 10.322262 0 4.623011 4.622657-.000008 10.314934-.000008 16.007212-.000008 20.624573 4.623011 20.624573 10.322262 20.624573 16.026814 16.007212 20.644532 10.314934 20.644532Z" fill="#f2af19"/>
<path transform="matrix(1,0,0,-1,1101.0951,320.84233)" d="M7.434387 14.881683C3.330647 14.881683 0 11.552258 0 7.438191 0 3.329425 3.330647 0 7.434387 0 11.538127 0 14.868774 3.329425 14.868774 7.438191 14.868774 11.552258 11.538127 14.881683 7.434387 14.881683Z" fill="#a1e0ff"/>
<path transform="matrix(1,0,0,-1,1101.0951,313.42005)" d="M0 0C0 .005301 0 .010602 0 .015905 0 .010602 0 .005301 0 0ZM7.487336 7.459396C7.487336 7.459396 7.487337 7.459396 7.48204 7.459396 7.487337 7.459396 7.487336 7.459396 7.487336 7.459396ZM7.46086 7.459396C7.46086 7.459396 7.460859 7.459396 7.455564 7.459396 7.460859 7.459396 7.46086 7.459396 7.46086 7.459396Z" fill="#9b5933"/>
<path transform="matrix(1,0,0,-1,1101.0951,315.599)" d="M.37066 0C.153558 .694512 0 1.415533 0 2.178967 0 2.184268 0 2.189569 0 2.194872 0 6.308932 3.330649 9.638351 7.43439 9.638351 7.439685 9.638351 7.450276 9.638351 7.455571 9.638351H7.460865C7.471457 9.638351 7.476751 9.638351 7.482046 9.638351 7.487342 9.638351 7.487341 9.638351 7.487341 9.638351 9.658352 9.622446 11.591082 8.657551 12.941345 7.15189 12.422421 7.189002 11.919382 7.210208 11.437523 7.210208 3.770146 7.210208 1.191408 2.486461 .37066 0Z" fill="#62c3ff"/>
<path transform="matrix(1,0,0,-1,1103.8645,315.04234)" d="M1.196701 2.401642C.534809 2.401642 0 1.860874 0 1.19817 0 .540767 .534809 0 1.196701 0 1.853298 0 2.393402 .540767 2.393402 1.19817 2.393402 1.860874 1.853298 2.401642 1.196701 2.401642Z" fill="#ffffff"/>
<path transform="matrix(1,0,0,-1,1110.8488,293.60786)" d="M0 0C.026475 .689213 .047656 1.373123 .068837 2.062332 11.665175 3.260502 20.698672 13.068506 20.698672 24.991864 20.698672 28.835543 19.761435 32.461858 18.098763 35.648134 20.476277 32.02182 21.858307 27.679787 21.858307 23.019659 21.858307 10.677475 12.173508 .604385 0 0Z" fill="#3679c6"/>
<path transform="matrix(1,0,0,-1,1089.2659,293.63966)" d="M20.418028 0C11.543387 0 3.844265 5.025946 0 12.389908 4.114317 6.112779 11.204499 1.972206 19.263689 1.972206 20.06855 1.972206 20.868115 2.014621 21.651795 2.094144 21.630614 1.404933 21.609433 .721023 21.582959 .03181 21.201708 .010604 20.809868 0 20.418028 0Z" fill="#4a9bd5"/>
<path transform="matrix(1,0,0,-1,1085.5062,291.66743)" d="M23.023278 46.09764C10.304348 46.09764 0 35.780675 0 23.05147 0 10.316959 10.304348-.000004 23.023278-.000004 35.736917-.000004 46.04126 10.316959 46.04126 23.05147 46.04126 35.780675 35.736917 46.09764 23.023278 46.09764Z" fill="#f2af19"/>
<path transform="matrix(1,0,0,-1,1091.9346,285.22596)" d="M16.594964 33.225297C7.429079 33.225297 0 25.787114 0 16.609997 0 7.43288 7.429079 0 16.594964 0 25.755555 0 33.18463 7.43288 33.18463 16.609997 33.18463 25.787114 25.755555 33.225297 16.594964 33.225297Z" fill="#a1e0ff"/>
<path transform="matrix(1,0,0,-1,1091.9346,273.52)" d="M.820747 .000008C.33889 1.56399 0 3.186287 0 4.904015 0 14.081132 7.429082 21.519318 16.594973 21.519318 16.600268 21.519318 16.610859 21.519318 16.621449 21.519318H16.626744C16.637333 21.519318 16.642628 21.519318 16.647925 21.519318H16.65322C16.663809 21.519318 16.669106 21.519318 16.679696 21.519318 21.545929 21.49281 25.872059 19.329747 28.89029 15.963211 27.725359 16.053339 26.608084 16.095753 25.53317 16.095753 8.41398 16.095753 2.658161 5.545512 .820747 .000008Z" fill="#62c3ff"/>
<path transform="matrix(1,0,0,-1,1100.518,265.94395)" d="M3.182373 6.367249C1.42439 6.367249 0 4.941111 0 3.18097 0 1.42613 1.42439-.000008 3.182373-.000008 4.940356-.000008 6.364746 1.42613 6.364746 3.18097 6.364746 4.941111 4.940356 6.367249 3.182373 6.367249Z" fill="#ffffff"/>
<path transform="matrix(1,0,0,-1,1098.114,272.2741)" d="M1.938034 3.886093C.863113 3.886093 0 3.016627 0 1.9404 0 .869472 .863113 .000007 1.938034 .000007 3.007659 .000007 3.876068 .869472 3.876068 1.9404 3.876068 3.016627 3.007659 3.886093 1.938034 3.886093Z" fill="#ffffff"/>
<path transform="matrix(1,0,0,-1,1107.0892,230.16327)" d="M1.440285 2.878784C.646011 2.878784 0 2.242589 0 1.442043 0 .646798 .646011 0 1.440285 0 2.23456 0 2.875275 .646798 2.875275 1.442043 2.875275 2.242589 2.23456 2.878784 1.440285 2.878784Z" fill="#cc8b96"/>
<path transform="matrix(1,0,0,-1,1107.3753,229.88233)" d="M1.154327 2.316818C.518918 2.316818 0 1.797258 0 1.161062 0 .519564 .518918 .000004 1.154327 .000004 1.795032 .000004 2.308655 .519564 2.308655 1.161062 2.308655 1.797258 1.795032 2.316818 1.154327 2.316818Z" fill="#ffdc0d"/>
<path transform="matrix(1,0,0,-1,1115.519,231.03275)" d="M1.43499 2.884094C.640714 2.884094 0 2.242597 0 1.442049 0 .646803 .640714 .000004 1.43499 .000004 2.229264 .000004 2.875275 .646803 2.875275 1.442049 2.875275 2.242597 2.229264 2.884094 1.43499 2.884094Z" fill="#cc8b96"/>
<path transform="matrix(1,0,0,-1,1115.7998,230.74646)" d="M1.154335 2.311508C.518921 2.311508 0 1.797249 0 1.155752 0 .514255 .518921-.000004 1.154335-.000004 1.800338-.000004 2.313965 .514255 2.313965 1.155752 2.313965 1.797249 1.800338 2.311508 1.154335 2.311508Z" fill="#ffdc0d"/>
<path transform="matrix(1,0,0,-1,1123.5784,232.81409)" d="M1.440262 2.884094C.651294 2.884094 0 2.237295 0 1.442051 0 .641505 .651294 .000008 1.440262 .000008 2.239818 .000008 2.880524 .641505 2.880524 1.442051 2.880524 2.237295 2.239818 2.884094 1.440262 2.884094Z" fill="#cc8b96"/>
<path transform="matrix(1,0,0,-1,1123.8643,232.52783)" d="M1.154343 2.316818C.518925 2.316818 0 1.797259 0 1.155762 0 .514266 .518925 .000008 1.154343 .000008 1.80035 .000008 2.308685 .514266 2.308685 1.155762 2.308685 1.797259 1.80035 2.316818 1.154343 2.316818Z" fill="#ffdc0d"/>
<path transform="matrix(1,0,0,-1,1131.0868,236.01096)" d="M1.440285 2.878784C.646011 2.878784 0 2.231985 0 1.436741 0 .636195 .646011 0 1.440285 0 2.23456 0 2.875275 .636195 2.875275 1.436741 2.875275 2.231985 2.23456 2.878784 1.440285 2.878784Z" fill="#cc8b96"/>
<path transform="matrix(1,0,0,-1,1131.3674,235.72998)" d="M1.15963 2.316818C.518921 2.316818 0 1.797259 0 1.155762 0 .519567 .518921 .000008 1.15963 .000008 1.800339 .000008 2.313965 .519567 2.313965 1.155762 2.313965 1.797259 1.800339 2.316818 1.15963 2.316818Z" fill="#ffdc0d"/>
<path transform="matrix(1,0,0,-1,1098.2357,231.03275)" d="M1.440292 2.884094C.640718 2.884094 0 2.242597 0 1.442049 0 .646803 .640718 .000004 1.440292 .000004 2.229276 .000004 2.880585 .646803 2.880585 1.442049 2.880585 2.242597 2.229276 2.884094 1.440292 2.884094Z" fill="#cc8b96"/>
<path transform="matrix(1,0,0,-1,1098.5164,230.74646)" d="M1.15963 2.311508C.513627 2.311508 0 1.797249 0 1.155752 0 .514255 .513627-.000004 1.15963-.000004 1.795044-.000004 2.313965 .514255 2.313965 1.155752 2.313965 1.797249 1.795044 2.311508 1.15963 2.311508Z" fill="#ffdc0d"/>
<path transform="matrix(1,0,0,-1,1090.1713,232.81409)" d="M1.440277 2.884094C.640713 2.884094 0 2.237295 0 1.442051 0 .641505 .640713 .000008 1.440277 .000008 2.229254 .000008 2.880554 .641505 2.880554 1.442051 2.880554 2.237295 2.229254 2.884094 1.440277 2.884094Z" fill="#cc8b96"/>
<path transform="matrix(1,0,0,-1,1090.4519,232.52783)" d="M1.15963 2.316818C.513627 2.316818 0 1.797259 0 1.155762 0 .514266 .513627 .000008 1.15963 .000008 1.795044 .000008 2.313965 .514266 2.313965 1.155762 2.313965 1.797259 1.795044 2.316818 1.15963 2.316818Z" fill="#ffdc0d"/>
<path transform="matrix(1,0,0,-1,1082.6681,236.01096)" d="M1.434975 2.878784C.640708 2.878784 0 2.231985 0 1.436741 0 .636195 .640708 0 1.434975 0 2.22924 0 2.875244 .636195 2.875244 1.436741 2.875244 2.231985 2.22924 2.878784 1.434975 2.878784Z" fill="#cc8b96"/>
<path transform="matrix(1,0,0,-1,1082.9487,235.72998)" d="M1.154335 2.316818C.513626 2.316818 0 1.797259 0 1.155762 0 .519567 .513626 .000008 1.154335 .000008 1.795043 .000008 2.313965 .519567 2.313965 1.155762 2.313965 1.797259 1.795043 2.316818 1.154335 2.316818Z" fill="#ffdc0d"/>
<path transform="matrix(1,0,0,-1,1080.3753,338.4225)" d="M1.44027 2.884094C.646003 2.884094 0 2.242596 0 1.442047 0 .6468 .646003 0 1.44027 0 2.234535 0 2.875244 .6468 2.875244 1.442047 2.875244 2.242596 2.234535 2.884094 1.44027 2.884094Z" fill="#cc8b96"/>
<path transform="matrix(1,0,0,-1,1080.6559,338.1362)" d="M1.15963 2.311523C.524216 2.311523 0 1.797262 0 1.155762 0 .514261 .524216 0 1.15963 0 1.800339 0 2.313965 .514261 2.313965 1.155762 2.313965 1.797262 1.800339 2.311523 1.15963 2.311523Z" fill="#ffdc0d"/>
<path transform="matrix(1,0,0,-1,1086.2952,338.4225)" d="M1.440285 2.884094C.646011 2.884094 0 2.242596 0 1.442047 0 .6468 .646011 0 1.440285 0 2.23456 0 2.875275 .6468 2.875275 1.442047 2.875275 2.242596 2.23456 2.884094 1.440285 2.884094Z" fill="#cc8b96"/>
<path transform="matrix(1,0,0,-1,1086.5759,338.1362)" d="M1.15963 2.311523C.518921 2.311523 0 1.797262 0 1.155762 0 .514261 .518921 0 1.15963 0 1.80034 0 2.313965 .514261 2.313965 1.155762 2.313965 1.797262 1.80034 2.311523 1.15963 2.311523Z" fill="#ffdc0d"/>
<path transform="matrix(1,0,0,-1,1092.2152,338.4225)" d="M1.43499 2.884094C.640714 2.884094 0 2.242596 0 1.442047 0 .6468 .640714 0 1.43499 0 2.234559 0 2.875275 .6468 2.875275 1.442047 2.875275 2.242596 2.234559 2.884094 1.43499 2.884094Z" fill="#cc8b96"/>
<path transform="matrix(1,0,0,-1,1092.4959,338.1362)" d="M1.15435 2.311523C.518928 2.311523 0 1.797262 0 1.155762 0 .514261 .518928 0 1.15435 0 1.800362 0 2.313995 .514261 2.313995 1.155762 2.313995 1.797262 1.800362 2.311523 1.15435 2.311523Z" fill="#ffdc0d"/>
<path transform="matrix(1,0,0,-1,1098.1299,338.4225)" d="M1.440277 2.884094C.646007 2.884094 0 2.242596 0 1.442047 0 .6468 .646007 0 1.440277 0 2.234548 0 2.880554 .6468 2.880554 1.442047 2.880554 2.242596 2.234548 2.884094 1.440277 2.884094Z" fill="#cc8b96"/>
<path transform="matrix(1,0,0,-1,1098.4158,338.1362)" d="M1.154327 2.311523C.518918 2.311523 0 1.797262 0 1.155762 0 .514261 .518918 0 1.154327 0 1.795032 0 2.308655 .514261 2.308655 1.155762 2.308655 1.797262 1.795032 2.311523 1.154327 2.311523Z" fill="#ffdc0d"/>
<path transform="matrix(1,0,0,-1,1104.0498,338.4225)" d="M1.44027 2.884094C.646003 2.884094 0 2.242596 0 1.442047 0 .6468 .646003 0 1.44027 0 2.234535 0 2.875244 .6468 2.875244 1.442047 2.875244 2.242596 2.234535 2.884094 1.44027 2.884094Z" fill="#cc8b96"/>
<path transform="matrix(1,0,0,-1,1104.3357,338.1362)" d="M1.154343 2.311523C.513629 2.311523 0 1.797262 0 1.155762 0 .514261 .513629 0 1.154343 0 1.795056 0 2.308685 .514261 2.308685 1.155762 2.308685 1.797262 1.795056 2.311523 1.154343 2.311523Z" fill="#ffdc0d"/>
<path transform="matrix(1,0,0,-1,1109.9645,338.4225)" d="M1.440277 2.884094C.651302 2.884094 0 2.242596 0 1.442047 0 .6468 .651302 0 1.440277 0 2.239843 0 2.880554 .6468 2.880554 1.442047 2.880554 2.242596 2.239843 2.884094 1.440277 2.884094Z" fill="#cc8b96"/>
<path transform="matrix(1,0,0,-1,1110.2505,338.1362)" d="M1.154343 2.311523C.518925 2.311523 0 1.797262 0 1.155762 0 .514261 .518925 0 1.154343 0 1.795056 0 2.308685 .514261 2.308685 1.155762 2.308685 1.797262 1.795056 2.311523 1.154343 2.311523Z" fill="#ffdc0d"/>
<path transform="matrix(1,0,0,-1,1115.8845,338.4225)" d="M1.440277 2.884094C.646007 2.884094 0 2.242596 0 1.442047 0 .6468 .646007 0 1.440277 0 2.234548 0 2.880554 .6468 2.880554 1.442047 2.880554 2.242596 2.234548 2.884094 1.440277 2.884094Z" fill="#cc8b96"/>
<path transform="matrix(1,0,0,-1,1116.165,338.1362)" d="M1.159645 2.311523C.524223 2.311523 0 1.797262 0 1.155762 0 .514261 .524223 0 1.159645 0 1.800364 0 2.313995 .514261 2.313995 1.155762 2.313995 1.797262 1.800364 2.311523 1.159645 2.311523Z" fill="#ffdc0d"/>
<path transform="matrix(1,0,0,-1,1121.8045,338.4225)" d="M1.44027 2.884094C.646003 2.884094 0 2.242596 0 1.442047 0 .6468 .646003 0 1.44027 0 2.234535 0 2.875244 .6468 2.875244 1.442047 2.875244 2.242596 2.234535 2.884094 1.44027 2.884094Z" fill="#cc8b96"/>
<path transform="matrix(1,0,0,-1,1122.0851,338.1362)" d="M1.159645 2.311523C.518928 2.311523 0 1.797262 0 1.155762 0 .514261 .518928 0 1.159645 0 1.800362 0 2.313995 .514261 2.313995 1.155762 2.313995 1.797262 1.800362 2.311523 1.159645 2.311523Z" fill="#ffdc0d"/>
<path transform="matrix(1,0,0,-1,1127.7244,338.4225)" d="M1.435005 2.884094C.640722 2.884094 0 2.242596 0 1.442047 0 .6468 .640722 0 1.435005 0 2.234584 0 2.875305 .6468 2.875305 1.442047 2.875305 2.242596 2.234584 2.884094 1.435005 2.884094Z" fill="#cc8b96"/>
<path transform="matrix(1,0,0,-1,1128.005,338.1362)" d="M1.154335 2.311523C.518921 2.311523 0 1.797262 0 1.155762 0 .514261 .518921 0 1.154335 0 1.800339 0 2.313965 .514261 2.313965 1.155762 2.313965 1.797262 1.800339 2.311523 1.154335 2.311523Z" fill="#ffdc0d"/>
<path transform="matrix(1,0,0,-1,1133.6392,338.4225)" d="M1.440262 2.884094C.645999 2.884094 0 2.242596 0 1.442047 0 .6468 .645999 0 1.440262 0 2.234523 0 2.880524 .6468 2.880524 1.442047 2.880524 2.242596 2.234523 2.884094 1.440262 2.884094Z" fill="#cc8b96"/>
<path transform="matrix(1,0,0,-1,1133.925,338.1362)" d="M1.154343 2.311523C.518925 2.311523 0 1.797262 0 1.155762 0 .514261 .518925 0 1.154343 0 1.795056 0 2.308685 .514261 2.308685 1.155762 2.308685 1.797262 1.795056 2.311523 1.154343 2.311523Z" fill="#ffdc0d"/>
<path transform="matrix(1,0,0,-1,1101.8364,385.03437)" d="M6.693047 29.355103C2.997045 29.355103 0 26.460415 0 24.286747 0 22.118384 2.997045 0 6.693047 0 10.38905 0 13.380798 22.118384 13.380798 24.286747 13.380798 26.460415 10.38905 29.355103 6.693047 29.355103Z" fill="#f79e0e"/>
</svg>
