<?xml version="1.0" encoding="UTF-8" standalone="no" ?>
<!DOCTYPE svg PUBLIC "-//W3C//DTD SVG 1.1//EN" "http://www.w3.org/Graphics/SVG/1.1/DTD/svg11.dtd">
<svg xmlns="http://www.w3.org/2000/svg" xmlns:xlink="http://www.w3.org/1999/xlink" version="1.1" width="1080" height="1080" viewBox="0 0 1080 1080" xml:space="preserve">
<desc>Created with Fabric.js 5.2.4</desc>
<defs>
</defs>
<rect x="0" y="0" width="100%" height="100%" fill="transparent"></rect>
<g transform="matrix(1 0 0 1 540 540)" id="ab28d02e-4860-45b7-9a4f-976aaea5190c"  >
<rect style="stroke: none; stroke-width: 1; stroke-dasharray: none; stroke-linecap: butt; stroke-dashoffset: 0; stroke-linejoin: miter; stroke-miterlimit: 4; fill: rgb(255,255,255); fill-rule: nonzero; opacity: 1; visibility: hidden;" vector-effect="non-scaling-stroke"  x="-540" y="-540" rx="0" ry="0" width="1080" height="1080" />
</g>
<g transform="matrix(1 0 0 1 540 540)" id="04f7f1d6-9d40-423d-9435-6e2bdaada34b"  >
</g>
<g transform="matrix(20.4 0 0 20.4 540 540)" id="ba81b584-be3e-4683-8cd5-d0081be7f3f9"  >
<path style="stroke: rgb(0,0,0); stroke-width: 0; stroke-dasharray: none; stroke-linecap: butt; stroke-dashoffset: 0; stroke-linejoin: miter; stroke-miterlimit: 4; fill: rgb(255,255,255); fill-rule: nonzero; opacity: 1;" vector-effect="non-scaling-stroke"  transform=" translate(-31.5, -31.5)" d="M 55.125 43.3125 C 55.125 44.31 54.5738 45.1763 53.7338 45.6225 L 32.9963 57.2775 C 32.5763 57.5925 32.0513 57.75 31.5 57.75 C 30.9488 57.75 30.4238 57.5925 30.0038 57.2775 L 9.26626 45.6225 C 8.84542 45.4013 8.49323 45.0691 8.24795 44.6618 C 8.00267 44.2546 7.87369 43.7879 7.87501 43.3125 L 7.87501 19.6875 C 7.87501 18.69 8.42626 17.8238 9.26626 17.3775 L 30.0038 5.7225 C 30.4238 5.4075 30.9488 5.25 31.5 5.25 C 32.0513 5.25 32.5763 5.4075 32.9963 5.7225 L 53.7338 17.3775 C 54.5738 17.8238 55.125 18.69 55.125 19.6875 L 55.125 43.3125 Z M 13.125 23.625 L 13.125 39.375 L 16.4063 39.375 L 16.4063 34.125 L 18.375 34.125 C 19.7674 34.125 21.1028 33.5719 22.0873 32.5873 C 23.0719 31.6027 23.625 30.2674 23.625 28.875 C 23.625 27.4826 23.0719 26.1473 22.0873 25.1627 C 21.1028 24.1781 19.7674 23.625 18.375 23.625 L 13.125 23.625 Z M 16.4063 31.5 L 16.4063 26.25 L 17.7188 26.25 C 18.415 26.25 19.0826 26.5266 19.5749 27.0188 C 20.0672 27.5111 20.3438 28.1788 20.3438 28.875 C 20.3438 29.5712 20.0672 30.2389 19.5749 30.7312 C 19.0826 31.2234 18.415 31.5 17.7188 31.5 L 16.4063 31.5 Z M 25.5938 23.625 L 25.5938 39.375 L 28.875 39.375 L 28.875 34.125 L 30.8438 34.125 L 32.5763 39.375 L 36.0413 39.375 L 33.9675 33.1013 C 35.2538 32.1563 36.0938 30.6075 36.0938 28.875 C 36.0938 27.4826 35.5406 26.1473 34.5561 25.1627 C 33.5715 24.1781 32.2361 23.625 30.8438 23.625 L 25.5938 23.625 Z M 28.875 31.5 L 28.875 26.25 L 30.1875 26.25 C 30.8837 26.25 31.5514 26.5266 32.0437 27.0188 C 32.5359 27.5111 32.8125 28.1788 32.8125 28.875 C 32.8125 29.5712 32.5359 30.2389 32.0437 30.7312 C 31.5514 31.2234 30.8837 31.5 30.1875 31.5 L 28.875 31.5 Z M 44.625 23.625 C 41.0025 23.625 38.0625 27.1425 38.0625 31.5 C 38.0625 35.8575 41.0025 39.375 44.625 39.375 C 48.2475 39.375 51.1875 35.8575 51.1875 31.5 C 51.1875 27.1425 48.2475 23.625 44.625 23.625 Z M 44.625 26.9063 C 46.62 26.9063 48.2475 28.9538 48.2475 31.5 C 48.2475 34.0463 46.62 36.0938 44.625 36.0938 C 42.63 36.0938 41.0288 34.0463 41.0288 31.5 C 41.0288 28.9538 42.63 26.9063 44.625 26.9063 Z" stroke-linecap="round" />
</g>
<g transform="matrix(NaN NaN NaN NaN 0 0)"  >
<g style=""   >
</g>
</g>
<g transform="matrix(NaN NaN NaN NaN 0 0)"  >
<g style=""   >
</g>
</g>
</svg>